<svg id="Warstwa_1" data-name="Warstwa 1" xmlns="http://www.w3.org/2000/svg" viewBox="0 0 406.89 481.2">
    <defs>
        <style>.cls-1{fill:#13104c;}.cls-2{fill:#4c46c8;}</style>
    </defs>
    <title>mcam-logo</title>
    <path class="cls-1" d="M293.16,204.44H260.8L233,256.55l30.29,51H324l29.54-52.88-30.42-50.23h-30Z"
          transform="translate(-52.56 -15.4)"/>
    <path class="cls-2" d="M212.38,222,321.86,17.27a243.89,243.89,0,0,0-28.7-1.87A239.51,239.51,0,0,0,128.64,80.91Z"
          transform="translate(-52.56 -15.4)"/>
    <path class="cls-2" d="M223.28,307.55,104.36,107.32a238.45,238.45,0,0,0-46.1,200.23Z"
          transform="translate(-52.56 -15.4)"/>
    <path class="cls-2" d="M304.82,341.92H68.7A241.42,241.42,0,0,0,224.09,486.39Z" transform="translate(-52.56 -15.4)"/>
    <path class="cls-2" d="M344.2,341.92l-84.95,152a235.63,235.63,0,0,0,200.19-64.44l-53-87.55Z"
          transform="translate(-52.56 -15.4)"/>
    <path class="cls-2" d="M459.39,82.68a241.19,241.19,0,0,0-102.32-58.4l-77.9,145.79,126.55-.16Z"
          transform="translate(-52.56 -15.4)"/>
</svg>