<svg xmlns="http://www.w3.org/2000/svg" version="1.1" width="512" height="512" x="0" y="0" viewBox="0 0 512 512"
     style="enable-background:new 0 0 512 512" xml:space="preserve" class=""><g>
<g xmlns="http://www.w3.org/2000/svg">
	<g>
		<path d="M497.231,54.154H14.769C6.613,54.154,0,60.767,0,68.923v83.692h512V68.923C512,60.767,505.387,54.154,497.231,54.154z     M374.154,132.923h-19.692c-8.157,0-14.769-6.613-14.769-14.769s6.613-14.769,14.769-14.769h19.692    c8.157,0,14.769,6.613,14.769,14.769S382.31,132.923,374.154,132.923z M433.231,132.923h-19.692    c-8.157,0-14.769-6.613-14.769-14.769s6.613-14.769,14.769-14.769h19.692c8.157,0,14.769,6.613,14.769,14.769    S441.387,132.923,433.231,132.923z"
              fill="#000000"></path>
	</g>
</g>
<g xmlns="http://www.w3.org/2000/svg">
	<g>
		<path d="M256,241.231c-35.29,0-64,28.71-64,64s28.71,64,64,64s64-28.71,64-64S291.29,241.231,256,241.231z M256,335.754    c-16.831,0-30.523-13.693-30.523-30.523s13.692-30.523,30.523-30.523s30.523,13.693,30.523,30.523S272.831,335.754,256,335.754z"
              fill="#000000"></path>
	</g>
</g>
<g xmlns="http://www.w3.org/2000/svg">
	<g>
		<path d="M44.308,182.154v64c0,56.545,22.02,109.706,62.003,149.689c39.983,39.983,93.144,62.003,149.689,62.003    s109.706-22.02,149.689-62.003c39.983-39.983,62.003-93.144,62.003-149.689v-64H44.308z M256,398.769    c-51.577,0-93.538-41.961-93.538-93.538s41.961-93.538,93.538-93.538s93.538,41.961,93.538,93.538S307.577,398.769,256,398.769z"
              fill="#000000"></path>
	</g>
</g>
<g xmlns="http://www.w3.org/2000/svg">
</g>
<g xmlns="http://www.w3.org/2000/svg">
</g>
<g xmlns="http://www.w3.org/2000/svg">
</g>
<g xmlns="http://www.w3.org/2000/svg">
</g>
<g xmlns="http://www.w3.org/2000/svg">
</g>
<g xmlns="http://www.w3.org/2000/svg">
</g>
<g xmlns="http://www.w3.org/2000/svg">
</g>
<g xmlns="http://www.w3.org/2000/svg">
</g>
<g xmlns="http://www.w3.org/2000/svg">
</g>
<g xmlns="http://www.w3.org/2000/svg">
</g>
<g xmlns="http://www.w3.org/2000/svg">
</g>
<g xmlns="http://www.w3.org/2000/svg">
</g>
<g xmlns="http://www.w3.org/2000/svg">
</g>
<g xmlns="http://www.w3.org/2000/svg">
</g>
<g xmlns="http://www.w3.org/2000/svg">
</g>
</g></svg>