<svg id="Warstwa_1" data-name="Warstwa 1" xmlns="http://www.w3.org/2000/svg" viewBox="0 0 24 24">
    <defs>
        <style>.cls-1{fill:none;}</style>
    </defs>
    <title>camera_indoor</title>
    <path class="cls-1" d="M0,0H24V24H0Z" transform="translate(0 0)"/>
    <path d="M10.13.55,1.9,6.72A2.75,2.75,0,0,0,.8,8.91V21.26A2.74,2.74,0,0,0,3.54,24H20a2.74,2.74,0,0,0,2.74-2.74V8.91a2.74,2.74,0,0,0-1.09-2.19L13.42.55A2.74,2.74,0,0,0,10.13.55Zm6.1,16.13-1.72-.91v1.37a1.37,1.37,0,0,1-1.37,1.37H7.66a1.37,1.37,0,0,1-1.37-1.37V11.66a1.37,1.37,0,0,1,1.37-1.37h5.48a1.37,1.37,0,0,1,1.37,1.37V13l1.72-.91a.7.7,0,0,1,1,.62v3.32A.7.7,0,0,1,16.23,16.68Z"
          transform="translate(0 0)"/>
</svg>