<svg xmlns="http://www.w3.org/2000/svg" version="1.1" width="512" height="512" x="0" y="0" viewBox="0 0 64 64"
     style="enable-background:new 0 0 512 512" xml:space="preserve" class=""><g><rect xmlns="http://www.w3.org/2000/svg" fill="#666666" height="8" rx="1" width="54" x="5" y="15.5" class=""></rect><path
        xmlns="http://www.w3.org/2000/svg" d="m10 23.5h44v6h-44z" fill="#cccccc"></path><path
        xmlns="http://www.w3.org/2000/svg" d="m32 51.5a22 22 0 0 0 22-22h-44a22 22 0 0 0 22 22z" fill="#e6e6e6"
        class=""></path><rect xmlns="http://www.w3.org/2000/svg" fill="#e6e6e6" height="2" rx="1" width="8" x="28"
                              y="18.5" class=""></rect><circle xmlns="http://www.w3.org/2000/svg" cx="32" cy="40.5"
                                                               fill="#666666" r="8" class=""></circle><circle
        xmlns="http://www.w3.org/2000/svg" cx="32" cy="40.5" fill="#5a53ee" r="4.444"></circle><path
        xmlns="http://www.w3.org/2000/svg" d="m52.432 13.5h-1a1 1 0 0 1 0-2h1a1 1 0 0 1 0 2z" fill="#000000"
        class=""></path><path xmlns="http://www.w3.org/2000/svg" d="m48.432 13.5h-5a1 1 0 0 1 0-2h5a1 1 0 0 1 0 2z"
                              fill="#000000" class=""></path><path xmlns="http://www.w3.org/2000/svg"
                                                                   d="m58 24.5h-52a2 2 0 0 1 -2-2v-6a2 2 0 0 1 2-2h52a2 2 0 0 1 2 2v6a2 2 0 0 1 -2 2zm-52-8v6h52v-6z"
                                                                   fill="#000000" class=""></path><path
        xmlns="http://www.w3.org/2000/svg" d="m55 30.5h-46v-8h46zm-44-2h42v-4h-42z" fill="#000000" class=""></path><path
        xmlns="http://www.w3.org/2000/svg"
        d="m9.5 41.39a1 1 0 0 1 -.9-.563 25.79 25.79 0 0 1 -1.789-4.873 1 1 0 0 1 1.938-.5 23.867 23.867 0 0 0 1.649 4.5 1 1 0 0 1 -.9 1.437z"
        fill="#000000" class=""></path><path xmlns="http://www.w3.org/2000/svg"
                                             d="m7.21 33.762a1 1 0 0 1 -.99-.87q-.066-.513-.114-1.033a1 1 0 1 1 1.994-.181c.029.321.064.638.106.955a1 1 0 0 1 -.863 1.121.96.96 0 0 1 -.133.008z"
                                             fill="#000000" class=""></path><path xmlns="http://www.w3.org/2000/svg"
                                                                                  d="m32 52.5a22.855 22.855 0 0 1 -18.231-8.977 1 1 0 1 1 1.584-1.22 21.006 21.006 0 0 0 36.08-4.828 1 1 0 0 1 1.85.76 22.93 22.93 0 0 1 -21.283 14.265zm-20.016-12.858a1 1 0 0 1 -.91-.585 22.816 22.816 0 0 1 -2.074-9.557v-1h17.572a1 1 0 1 1 0 2h-15.549a20.766 20.766 0 0 0 1.87 7.725 1 1 0 0 1 -.909 1.417zm41.731-5.587a.98.98 0 0 1 -.161-.013 1 1 0 0 1 -.827-1.147 21.425 21.425 0 0 0 .25-2.4h-21.4a1 1 0 0 1 0-2h23.423v1a23.359 23.359 0 0 1 -.3 3.715 1 1 0 0 1 -.985.845z"
                                                                                  fill="#000000" class=""></path><path
        xmlns="http://www.w3.org/2000/svg"
        d="m32 49.5a9 9 0 1 1 9-9 9.011 9.011 0 0 1 -9 9zm0-16a7 7 0 1 0 7 7 7.008 7.008 0 0 0 -7-7z" fill="#000000"
        class=""></path><path xmlns="http://www.w3.org/2000/svg"
                              d="m32 45.944a5.444 5.444 0 1 1 5.444-5.444 5.45 5.45 0 0 1 -5.444 5.444zm0-8.888a3.444 3.444 0 1 0 3.444 3.444 3.448 3.448 0 0 0 -3.444-3.444z"
                              fill="#000000" class=""></path></g></svg>