<svg xmlns="http://www.w3.org/2000/svg" version="1.1" width="512" height="512" x="0" y="0" viewBox="0 0 20 20"
     style="enable-background:new 0 0 512 512" xml:space="preserve" class=""><g><g xmlns="http://www.w3.org/2000/svg"><g><path d="m18.3 7.6c-4.6-4.6-12-4.6-16.6 0-.4.4-1 .4-1.4 0s-.4-1 0-1.4c5.4-5.4 14.1-5.4 19.4 0 .4.4.4 1 0 1.4s-1 .4-1.4 0z" fill="#000000" class=""></path></g><g><path d="m15.4 10.4c-3-2.9-7.8-2.9-10.7 0-.4.4-1 .4-1.4 0s-.4-1 0-1.4c3.7-3.8 9.8-3.8 13.5 0 .4.4.4 1 0 1.4s-1 .4-1.4 0z" fill="#000000" class=""></path></g><g><path d="m12.6 13.4c-1.4-1.4-3.6-1.4-4.9 0-.4.4-1 .4-1.4 0s-.4-1.1 0-1.5c2.1-2.3 5.6-2.3 7.7 0 .4.4.4 1.1 0 1.5s-1 .4-1.4 0z" fill="#000000" class=""></path></g><circle
        cx="10.1" cy="16" r="1.9" fill="#000000" class=""></circle></g></g></svg>