<svg xmlns="http://www.w3.org/2000/svg" version="1.1" width="512" height="512" x="0" y="0" viewBox="0 0 512 512"
     style="enable-background:new 0 0 512 512" xml:space="preserve" class=""><g><g xmlns="http://www.w3.org/2000/svg"><path d="m353.167 271.745-7.167-.08v-26.745c17.459-6.192 30-22.867 30-42.432 0-8.284-6.716-14.994-15-14.994s-15 6.723-15 15.007c0 3.421-1.164 6.567-3.098 9.094-4.699-13.408-14.42-24.474-26.902-30.931-.402-3.737 2.278-19.944-8.516-37.934l8.123-8.123c5.858-5.857 5.858-15.355 0-21.213-5.857-5.857-15.355-5.857-21.213 0l-8.257 8.257c-18.617-10.863-41.621-10.883-60.273 0l-8.257-8.257c-5.857-5.857-15.355-5.857-21.213 0s-5.858 15.355 0 21.213l8.123 8.123c-10.78 17.968-8.097 34.042-8.516 37.934-12.988 6.719-22.989 18.429-27.45 32.575-2.802-2.728-4.55-6.535-4.55-10.751 0-8.284-6.716-14.994-15-14.994s-15 6.723-15 15.007c0 20.294 13.506 37.486 32 43.078v26.065l-9.168.102c-20.861.231-37.833 17.392-37.833 38.254 0 8.284 6.716 15 15 15s15-6.716 15-15c0-4.503 3.663-8.207 8.165-8.257l8.835-.098c.301 3.829-1.74 20.288 6.69 40.863-25.549 13.504-23.158 40.549-23.213 40.747.126 8.19 6.823 14.875 15.228 14.769 8.283-.127 14.896-6.944 14.769-15.228.041-.138-1.237-11.128 9.255-14.601 13.13 14.78 31.029 25.233 51.272 28.88v-199.305c0-8.284 6.716-15 15-15s15 6.716 15 15v199.64c20.789-3.261 39.226-13.678 52.741-28.625 1.438.674 2.767 1.592 3.917 2.759 4.678 4.753 3.791 10.726 3.87 11.252-.128 8.37 6.62 15.229 15.003 15.229 8.177 0 14.867-6.565 14.993-14.771-.084-.317 2.476-25.753-21.587-39.838 8.857-20.958 6.739-37.762 7.063-41.75l6.834.076c4.503.05 8.166 3.754 8.166 8.257 0 8.284 6.716 15 15 15s15-6.716 15-15c-.001-20.861-16.973-38.022-37.834-38.254z" fill="#000000" class=""></path><path
        d="m497 241h-5.991c-7.451-117.929-102.08-212.558-220.009-220.009v-5.991c0-8.284-6.716-15-15-15s-15 6.716-15 15v5.991c-117.929 7.451-212.558 102.08-220.009 220.009h-5.991c-8.284 0-15 6.716-15 15s6.716 15 15 15h5.991c7.451 117.929 102.08 212.558 220.009 220.009v5.991c0 8.284 6.716 15 15 15s15-6.716 15-15v-5.991c117.929-7.451 212.558-102.08 220.009-220.009h5.991c8.284 0 15-6.716 15-15s-6.716-15-15-15zm-226 219.95v-9.95c0-8.284-6.716-15-15-15s-15 6.716-15 15v9.95c-101.382-7.349-182.601-88.568-189.95-189.95h9.95c8.284 0 15-6.716 15-15s-6.716-15-15-15h-9.95c7.349-101.382 88.568-182.601 189.95-189.95v9.95c0 8.284 6.716 15 15 15s15-6.716 15-15v-9.95c101.382 7.349 182.601 88.568 189.95 189.95h-9.95c-8.284 0-15 6.716-15 15s6.716 15 15 15h9.95c-7.349 101.382-88.568 182.601-189.95 189.95z"
        fill="#000000" class=""></path></g></g></svg>