<svg xmlns="http://www.w3.org/2000/svg" version="1.1" width="512" height="512" x="0" y="0" viewBox="0 0 20 20"
     style="enable-background:new 0 0 512 512" xml:space="preserve" class=""><g><path xmlns="http://www.w3.org/2000/svg" clip-rule="evenodd" d="m18 10c0 4.4183-3.5817 8-8 8-4.41828 0-8-3.5817-8-8 0-4.41828 3.58172-8 8-8 4.4183 0 8 3.58172 8 8zm-7 4c0 .5523-.4477 1-1 1-.55228 0-1-.4477-1-1s.44772-1 1-1c.5523 0 1 .4477 1 1zm-1-9c-.55228 0-1 .44772-1 1v4c0 .5523.44772 1 1 1 .5523 0 1-.4477 1-1v-4c0-.55228-.4477-1-1-1z" fill="#000000" fill-rule="evenodd" class=""></path></g></svg>