<svg xmlns="http://www.w3.org/2000/svg" version="1.1" width="512" height="512" x="0" y="0" viewBox="0 0 512 512"
     style="enable-background:new 0 0 512 512" xml:space="preserve" class=""><g><g xmlns="http://www.w3.org/2000/svg" id="Solid"><path d="m104 72h48a24 24 0 0 0 24-24 24 24 0 0 0 -24-24h-104a24 24 0 0 0 -24 24v104a24 24 0 0 0 48 0v-48l116 116a22.627 22.627 0 0 0 32 0 22.627 22.627 0 0 0 0-32z" fill="#000000" class=""></path><path
        d="m220 292a22.627 22.627 0 0 0 -32 0l-116 116v-48a24 24 0 0 0 -48 0v104a24 24 0 0 0 24 24h104a24 24 0 0 0 24-24 24 24 0 0 0 -24-24h-48l116-116a22.627 22.627 0 0 0 0-32z"
        fill="#000000" class=""></path><path
        d="m464 24h-104a24 24 0 0 0 -24 24 24 24 0 0 0 24 24h48l-116 116a22.627 22.627 0 0 0 0 32 22.627 22.627 0 0 0 32 0l116-116v48a24 24 0 0 0 48 0v-104a24 24 0 0 0 -24-24z"
        fill="#000000" class=""></path><path
        d="m464 336a24 24 0 0 0 -24 24v48l-116-116a22.627 22.627 0 0 0 -32 0 22.627 22.627 0 0 0 0 32l116 116h-48a24 24 0 0 0 -24 24 24 24 0 0 0 24 24h104a24 24 0 0 0 24-24v-104a24 24 0 0 0 -24-24z"
        fill="#000000" class=""></path></g></g></svg>