<svg xmlns="http://www.w3.org/2000/svg" version="1.1" width="512" height="512" x="0" y="0" viewBox="0 0 24 24"
     style="enable-background:new 0 0 512 512" xml:space="preserve" class=""><g><path xmlns="http://www.w3.org/2000/svg" d="m20 14h-4.3l.7-4h3.6c.6 0 1-.4 1-1s-.4-1-1-1h-3.2l.7-3.8c.1-.5-.2-1.1-.8-1.2 0 0 0 0-.1 0-.5-.1-1.1.2-1.2.7v.1l-.7 4.2h-3.9l.7-3.8c.1-.5-.2-1.1-.8-1.2 0 0 0 0-.1 0-.5-.1-1.1.2-1.2.7v.1l-.7 4.2h-4.7c-.6 0-1 .4-1 1s.4 1 1 1h4.3l-.7 4h-3.6c-.6 0-1 .4-1 1s.4 1 1 1h3.2l-.7 3.8c-.1.5.2 1.1.8 1.2h.1c.5.1 1.1-.2 1.2-.7v-.1l.7-4.2h3.9l-.7 3.8c-.1.5.2 1.1.8 1.2h.1c.5.1 1.1-.2 1.2-.7v-.1l.8-4.2h4.6c.6 0 1-.4 1-1s-.4-1-1-1zm-10.3 0 .7-4h3.9l-.7 4z" fill="#000000" class=""></path></g></svg>