<svg xmlns="http://www.w3.org/2000/svg" version="1.1" width="512" height="512" x="0" y="0" viewBox="0 0 32 32"
     style="enable-background:new 0 0 512 512" xml:space="preserve" class="">
    <g>
    <g xmlns="http://www.w3.org/2000/svg" id="Ikon">
            <path d="" fill="none"/>
        <path d="m30 16a14 14 0 0 1 -28 0 1 1 0 0 1 2 0 12.018 12.018 0 1 0 5.37927-10h.62073a1 1 0 0 1 0 2h-3a.99943.99943 0 0 1 -1-1v-3a1 1 0 0 1 2 0v.51392a13.99667 13.99667 0 0 1 22 11.48608zm-5 0a9 9 0 1 1 -9-9 9.00984 9.00984 0 0 1 9 9zm-5.44531 1.168-2.55469-1.70316v-4.46484a1 1 0 0 0 -2 0v5a1.00028 1.00028 0 0 0 .44531.832l3 2a1 1 0 0 0 1.10938-1.664z" class=""></path>
    </g>
    </g>
</svg>