<svg xmlns="http://www.w3.org/2000/svg" version="1.1" width="512" height="512" x="0" y="0" viewBox="0 0 24 24"
     style="enable-background:new 0 0 512 512" xml:space="preserve" class=""><g><g xmlns="http://www.w3.org/2000/svg" id="flash_light"><g><path d="m19 7h-14c-.552 0-1 .448-1 1v4c0 1.654 1.346 3 3 3v4c0 1.654 1.346 3 3 3h4c1.654 0 3-1.346 3-3v-4c1.654 0 3-1.346 3-3v-4c0-.552-.448-1-1-1zm-2 6h-1c-.552 0-1 .448-1 1v5c0 .551-.449 1-1 1h-4c-.551 0-1-.449-1-1v-5c0-.552-.448-1-1-1h-1c-.551 0-1-.449-1-1v-3h12v3c0 .551-.449 1-1 1z" fill="#000000"  class=""></path><path
        d="m5.105 5.447c.176.351.529.553.896.553.15 0 .303-.034.446-.105.494-.247.694-.848.447-1.342l-1-2c-.246-.494-.845-.695-1.341-.448-.494.248-.695.848-.448 1.342z"
        fill="#000000" class=""></path><path
        d="m17.553 5.895c.143.071.296.105.446.105.367 0 .72-.202.896-.553l1-2c.247-.494.047-1.095-.447-1.342-.495-.248-1.095-.047-1.342.447l-1 2c-.248.495-.047 1.095.447 1.343z"
        fill="#000000" class=""></path><path
        d="m12 6c.552 0 1-.448 1-1v-2c0-.552-.448-1-1-1s-1 .448-1 1v2c0 .552.448 1 1 1z" fill="#000000" class=""></path><path
        d="m12 14c-.552 0-1 .448-1 1v1c0 .552.448 1 1 1s1-.448 1-1v-1c0-.552-.448-1-1-1z" fill="#000000"
        class=""></path></g></g></g></svg>