<svg xmlns="http://www.w3.org/2000/svg" version="1.1" width="512" height="512" x="0" y="0" viewBox="0 0 22 18"
     style="enable-background:new 0 0 512 512" xml:space="preserve" class=""><g><g xmlns="http://www.w3.org/2000/svg" clip-rule="evenodd" fill="rgb(0,0,0)" fill-rule="evenodd"><path d="m.75 9c0-.41421.33579-.75.75-.75h12c.4142 0 .75.33579.75.75s-.3358.75-.75.75h-12c-.41421 0-.75-.33579-.75-.75z" fill="#000000" class=""></path><path
        d="m9.46967 4.96967c.29289-.29289.76773-.29289 1.06063 0l3.5 3.5c.2929.29289.2929.76777 0 1.06066l-3.5 3.49997c-.2929.2929-.76774.2929-1.06063 0s-.29289-.7677 0-1.0606l2.96963-2.9697-2.96963-2.96967c-.29289-.29289-.29289-.76777 0-1.06066z"
        fill="#000000" class=""></path><path
        d="m12.5 1.75c-2.81499 0-5.25663 1.6042-6.45819 3.95176-.18872.36872-.64062.51464-1.00934.32592-.36873-.18873-.51464-.64063-.32592-1.00935 1.44806-2.82916 4.39367-4.76833 7.79345-4.76833 1.3715 0 2.6713.316065 3.8286.88002.3723.18145.5271.6304.3456 1.00276-.1814.37235-.6304.52711-1.0027.34566-.9571-.46639-2.0326-.72844-3.1715-.72844zm6.5542 2.6008c.3586-.20741.8174-.08489 1.0248.27366.7449 1.28777 1.171 2.78303 1.171 4.37554 0 4.8325-3.9175 8.75-8.75 8.75-3.39978 0-6.34539-1.9392-7.79345-4.7683-.18872-.3688-.04281-.8207.32592-1.0094.36872-.1887.82062-.0428 1.00934.3259 1.20156 2.3476 3.6432 3.9518 6.45819 3.9518 4.0041 0 7.25-3.2459 7.25-7.25 0-1.32179-.353-2.55884-.9694-3.62446-.2074-.35854-.0849-.81734.2736-1.02474z"
        fill="#000000" class=""></path></g></g></svg>