<svg xmlns="http://www.w3.org/2000/svg" version="1.1" width="512" height="512" x="0" y="0" viewBox="0 0 512 512"
     style="enable-background:new 0 0 512 512" xml:space="preserve" class=""><g><path xmlns="http://www.w3.org/2000/svg" d="m256 0c-141.159 0-256 114.841-256 256s114.841 256 256 256 256-114.841 256-256-114.841-256-256-256zm82.719 355.041c-26.666 26.967-62.233 41.818-100.149 41.818-77.67 0-140.86-63.189-140.86-140.859s63.19-140.859 140.86-140.859c37.916 0 73.482 14.851 100.148 41.817 4.66 4.712 4.618 12.31-.095 16.97-4.712 4.66-12.311 4.618-16.97-.095-22.123-22.372-51.628-34.692-83.083-34.692-64.437 0-116.859 52.423-116.859 116.859s52.423 116.859 116.859 116.859c31.455 0 60.96-12.321 83.083-34.693 4.66-4.712 12.258-4.756 16.97-.095 4.713 4.66 4.756 12.258.096 16.97zm72.055-90.556-42.071 42.071c-2.343 2.343-5.414 3.515-8.485 3.515s-6.142-1.171-8.485-3.515c-4.686-4.686-4.687-12.284 0-16.971l21.586-21.585h-134.749c-6.627 0-12-5.373-12-12s5.373-12 12-12h134.748l-21.585-21.585c-4.686-4.686-4.687-12.284 0-16.971s12.284-4.687 16.971 0l42.071 42.07c2.25 2.25 3.515 5.303 3.515 8.485s-1.265 6.236-3.516 8.486z" fill="#000000" class=""></path></g></svg>