<svg xmlns="http://www.w3.org/2000/svg" version="1.1"
     width="512" height="512" x="0" y="0" viewBox="0 0 32 32"
     style="enable-background:new 0 0 512 512" xml:space="preserve" class=""><g><path xmlns="http://www.w3.org/2000/svg" d="m16 1a14.89141 14.89141 0 0 0 -9.87 3.72l5.22 5.22a12.41693 12.41693 0 0 1 4.65-.9 12.23149 12.23149 0 0 1 8.71 3.61.996.996 0 0 1 0 1.41 1.00957 1.00957 0 0 1 -.71.3.99249.99249 0 0 1 -.71-.3 10.31339 10.31339 0 0 0 -10.37-2.55l2.25 2.25a5.68838 5.68838 0 0 1 .83-.05 7.59554 7.59554 0 0 1 5.4 2.24 1.00057 1.00057 0 0 1 -1.41 1.42 5.58216 5.58216 0 0 0 -2.72-1.51l10.01 10.01a14.98735 14.98735 0 0 0 -11.28-24.87z" fill="#000000" class=""></path><path
        xmlns="http://www.w3.org/2000/svg"
        d="m17.97 19.99a1.97 1.97 0 1 1 -1.97-1.97 2.001 2.001 0 0 1 .77.16l-2.27-2.27a5.6932 5.6932 0 0 0 -2.49 1.46.99588.99588 0 0 1 -1.41 0 1.008 1.008 0 0 1 0-1.42 7.735 7.735 0 0 1 2.34-1.6l-1.99-1.99a10.5108 10.5108 0 0 0 -2.24 1.7 1.00059 1.00059 0 1 1 -1.42-1.41 12.17227 12.17227 0 0 1 2.2-1.75l-4.77-4.77a14.98732 14.98732 0 0 0 21.15 21.15l-8.04-8.04a2.04276 2.04276 0 0 1 .14.75z"
        fill="#000000" class=""></path></g></svg>