<svg xmlns="http://www.w3.org/2000/svg" width="512" height="512" x="0" y="0" viewBox="0 0 419.84 419.84"
     style="enable-background:new 0 0 512 512" xml:space="preserve" class=""><g>
<g xmlns="http://www.w3.org/2000/svg">
	<g>
		<path d="M209.92,0C93.696,0,0,93.696,0,209.92s93.696,209.92,209.92,209.92s209.92-93.696,209.92-209.92S326.144,0,209.92,0z     M303.104,219.648l-139.776,81.92c-1.536,1.024-4.096,1.536-5.632,1.536s-4.096-0.512-5.632-1.536    c-3.584-2.56-5.632-5.632-5.632-9.728V128.512h-0.512c0-4.096,2.56-8.192,5.632-9.728c3.072-1.536,8.192-2.56,11.776,0    l139.776,81.408c3.584,2.56,5.632,5.632,5.632,9.728S306.176,218.112,303.104,219.648z"
              fill="#000000" class=""></path>
	</g>
</g>
<g xmlns="http://www.w3.org/2000/svg">
</g>
<g xmlns="http://www.w3.org/2000/svg">
</g>
<g xmlns="http://www.w3.org/2000/svg">
</g>
<g xmlns="http://www.w3.org/2000/svg">
</g>
<g xmlns="http://www.w3.org/2000/svg">
</g>
<g xmlns="http://www.w3.org/2000/svg">
</g>
<g xmlns="http://www.w3.org/2000/svg">
</g>
<g xmlns="http://www.w3.org/2000/svg">
</g>
<g xmlns="http://www.w3.org/2000/svg">
</g>
<g xmlns="http://www.w3.org/2000/svg">
</g>
<g xmlns="http://www.w3.org/2000/svg">
</g>
<g xmlns="http://www.w3.org/2000/svg">
</g>
<g xmlns="http://www.w3.org/2000/svg">
</g>
<g xmlns="http://www.w3.org/2000/svg">
</g>
<g xmlns="http://www.w3.org/2000/svg">
</g>
</g></svg>