<svg xmlns="http://www.w3.org/2000/svg" version="1.1" width="512" height="512" x="0" y="0" viewBox="0 0 24 24"
     style="enable-background:new 0 0 512 512" xml:space="preserve" class=""><g><path xmlns="http://www.w3.org/2000/svg" d="m21 5h-18a1 1 0 0 0 0 2h2v12a3.0009 3.0009 0 0 0 3 3h8a3.0008 3.0008 0 0 0 3-3v-12h2a1 1 0 0 0 0-2zm-10 11a1 1 0 0 1 -2 0v-5a1 1 0 0 1 2 0zm4 0a1 1 0 0 1 -2 0v-5a1 1 0 0 1 2 0z" fill="#000000" class=""></path><path
        xmlns="http://www.w3.org/2000/svg" d="m10 4h4a1 1 0 0 0 0-2h-4a1 1 0 0 0 0 2z" fill="#000000" class=""></path></g></svg>