<svg xmlns="http://www.w3.org/2000/svg" version="1.1" width="512" height="512" x="0" y="0" viewBox="0 0 512 512"
     style="enable-background:new 0 0 512 512" xml:space="preserve" class=""><g><path xmlns="http://www.w3.org/2000/svg" d="m294.078125 181.152344h-13.347656v68.855468h13.347656c8.402344 0 13.5-4.800781 13.5-15v-38.855468c0-10.199219-5.097656-15-13.5-15zm0 0" fill="#000000" class=""></path><path
        xmlns="http://www.w3.org/2000/svg"
        d="m375 0h-300c-4.152344 0-8.117188 1.722656-10.953125 4.753906l-60 64.152344c-2.601563 2.777344-4.046875 6.441406-4.046875 10.246094v111.167968c0 8.285157 6.714844 15 15 15h24.140625v131.945313h-24.140625c-8.285156 0-15 6.714844-15 15v144.734375c0 8.285156 6.714844 15 15 15h360c8.285156 0 15-6.714844 15-15v-482c0-8.285156-6.714844-15-15-15zm-105 40c0-5.523438 4.476562-10 10-10h10c5.523438 0 10 4.476562 10 10v51.691406c0 5.523438-4.476562 10-10 10h-10c-5.523438 0-10-4.476562-10-10zm-60 0c0-5.523438 4.476562-10 10-10h10c5.523438 0 10 4.476562 10 10v51.691406c0 5.523438-4.476562 10-10 10h-10c-5.523438 0-10-4.476562-10-10zm29.328125 133.054688c0 4.046874-2.699219 12.296874-9.296875 12.296874-5.398438 0-8.25-5.699218-20.550781-5.699218-10.648438 0-15 4.351562-15 9 0 15.003906 47.550781 12.152344 47.550781 49.953125 0 21.605469-15.75 33.304687-37.5 33.304687-19.648438 0-36.148438-9.601562-36.148438-19.503906 0-5.097656 4.5-12.597656 10.199219-12.597656 7.050781 0 11.550781 11.097656 25.5 11.097656 6.898438 0 14.546875-2.699219 14.546875-9.898438 0-18.152343-47.546875-15-47.546875-50.105468 0-22.5 19.648438-31.050782 38.398438-31.050782 7.949219 0 29.847656 1.5 29.847656 13.203126zm-89.328125-133.054688c0-5.523438 4.476562-10 10-10h10c5.523438 0 10 4.476562 10 10v51.691406c0 5.523438-4.476562 10-10 10h-10c-5.523438 0-10-4.476562-10-10zm-60 0c0-5.523438 4.476562-10 10-10h10c5.523438 0 10 4.476562 10 10v51.691406c0 5.523438-4.476562 10-10 10h-10c-5.523438 0-10-4.476562-10-10zm225 411.996094h-240c-8.285156 0-15-6.714844-15-15 0-8.28125 6.714844-15 15-15h240c8.285156 0 15 6.71875 15 15 0 8.285156-6.714844 15-15 15zm15.976562-216.988282c0 25.800782-16.199218 35.398438-36.898437 35.398438h-26.546875c-6.148438 0-10.199219-3.296875-10.199219-7.050781v-95.554688c0-3.75 4.050781-7.050781 10.199219-7.050781h26.546875c20.699219 0 36.898437 9.601562 36.898437 35.402344zm29.023438-143.316406c0 5.523438-4.476562 10-10 10h-10c-5.523438 0-10-4.476562-10-10v-51.691406c0-5.523438 4.476562-10 10-10h10c5.523438 0 10 4.476562 10 10zm0 0"
        fill="#000000" class=""></path></g></svg>