<svg xmlns="http://www.w3.org/2000/svg" version="1.1" width="512"
     height="512" x="0" y="0" viewBox="0 0 64 64"
     style="enable-background:new 0 0 512 512" xml:space="preserve" class=""><g><g><g><path d="m55.375 21.116c-.937-5.837-6.022-10.318-12.119-10.318-1.183 0-2.362.172-3.491.506-3.707-4.773-10.109-7.278-16.612-6.32-8.779 1.288-15.173 8.415-15.141 16.397-4.342 1.946-7.226 6.287-7.226 11.188 0 6.157 4.562 11.255 10.48 12.127-.087-.774-.142-1.557-.142-2.354 0-.923.081-1.826.198-2.719-3.173-.782-5.536-3.644-5.536-7.055 0-3.333 2.248-6.228 5.467-7.041 1.241-.313 2.045-1.515 1.862-2.782-.878-6.065 3.951-11.814 10.765-12.815.684-.101 1.365-.149 2.039-.149 4.508 0 8.657 2.196 10.719 5.82.661 1.161 2.118 1.597 3.312.989 1.026-.525 2.139-.792 3.307-.792 3.995 0 7.258 3.244 7.273 7.23.005 1.172.822 2.184 1.968 2.433 3.366.733 5.717 3.656 5.717 7.107 0 3.411-2.363 6.273-5.536 7.055.117.892.198 1.795.198 2.719 0 .797-.055 1.58-.142 2.354 5.918-.873 10.48-5.97 10.48-12.127-.001-5.181-3.143-9.656-7.84-11.453z" fill="#000000" class=""></path></g><path
        d="m32.001 25.467c-9.306 0-16.876 7.571-16.876 16.875 0 9.306 7.571 16.876 16.876 16.876s16.875-7.571 16.875-16.876-7.571-16.875-16.875-16.875zm0 4.525c6.81 0 12.35 5.54 12.35 12.35 0 2.503-.753 4.83-2.037 6.778l-17.091-17.09c1.948-1.285 4.275-2.038 6.778-2.038zm-12.351 12.35c0-2.502.753-4.83 2.037-6.777l17.091 17.091c-1.948 1.284-4.275 2.037-6.777 2.037-6.811 0-12.351-5.54-12.351-12.351z"
        fill="#000000" class=""></path></g></g></svg>