<svg xmlns="http://www.w3.org/2000/svg" version="1.1" width="512" height="512" x="0" y="0" viewBox="0 0 24 24"
     style="enable-background:new 0 0 512 512" xml:space="preserve" class=""><g><g xmlns="http://www.w3.org/2000/svg" id="_21" data-name="21"><path d="m4 12a10 10 0 0 1 2.3-6.36 1 1 0 0 0 -1.54-1.28 12 12 0 0 0 0 15.28 1 1 0 0 0 .77.36 1 1 0 0 0 .64-.23 1 1 0 0 0 .13-1.41 10 10 0 0 1 -2.3-6.36z" fill="#000000" class=""></path><circle
        cx="12" cy="12" r="2" fill="#000000" class=""></circle><path
        d="m17.06 8.48a1 1 0 1 0 -1.72 1 5 5 0 0 1 0 5 1 1 0 0 0 .34 1.38 1.1 1.1 0 0 0 .52.14 1 1 0 0 0 .86-.48 7.06 7.06 0 0 0 0-7z"
        fill="#000000" class=""></path><path
        d="m8.32 8.14a1 1 0 0 0 -1.38.34 7.06 7.06 0 0 0 0 7 1 1 0 0 0 .86.52 1.1 1.1 0 0 0 .52-.14 1 1 0 0 0 .34-1.38 5 5 0 0 1 0-5 1 1 0 0 0 -.34-1.34z"
        fill="#000000" class=""></path><path
        d="m19.25 4.36a1 1 0 1 0 -1.54 1.28 10 10 0 0 1 0 12.72 1 1 0 0 0 .13 1.41 1 1 0 0 0 .64.23 1 1 0 0 0 .77-.36 12 12 0 0 0 0-15.28z"
        fill="#000000" class=""></path></g></g></svg>