<svg xmlns="http://www.w3.org/2000/svg" version="1.1"
     width="512" height="512" x="0" y="0" viewBox="0 0 32 32"
     style="enable-background:new 0 0 512 512" xml:space="preserve" class=""><g><g xmlns="http://www.w3.org/2000/svg" id="layer1"><path id="path1686" d="m6.5 4a1.0000999 1.0000999 0 0 0 -1 1v5a1.0000999 1.0000999 0 1 0 2 0v-4h4a1.0000999 1.0000999 0 1 0 0-2z" font-variant-ligatures="normal" font-variant-position="normal" font-variant-caps="normal" font-variant-numeric="normal" font-variant-alternates="normal" font-feature-settings="normal" text-indent="0" text-align="start" text-decoration-line="none" text-decoration-style="solid" text-decoration-color="rgb(0,0,0)" text-transform="none" text-orientation="mixed" white-space="normal" shape-padding="0" isolation="auto" mix-blend-mode="normal" solid-color="rgb(0,0,0)" solid-opacity="1" vector-effect="none" paint-order="normal" fill="#000000" class=""></path><path
        id="path1688"
        d="m28.4844 20.98633a1.0000999 1.0000999 0 0 0 -.9844 1.01367v4h-4a1.0000999 1.0000999 0 1 0 0 2h5a1.0000999 1.0000999 0 0 0 1-1v-5a1.0000999 1.0000999 0 0 0 -1.0156-1.01367z"
        font-variant-ligatures="normal" font-variant-position="normal" font-variant-caps="normal"
        font-variant-numeric="normal" font-variant-alternates="normal" font-feature-settings="normal" text-indent="0"
        text-align="start" text-decoration-line="none" text-decoration-style="solid" text-decoration-color="rgb(0,0,0)"
        text-transform="none" text-orientation="mixed" white-space="normal" shape-padding="0" isolation="auto"
        mix-blend-mode="normal" solid-color="rgb(0,0,0)" solid-opacity="1" vector-effect="none" paint-order="normal"
        fill="#000000" class=""></path><path id="path1690"
                                             d="m28.4844 12.98633a1.0000999 1.0000999 0 0 0 -.9844 1.01367v4a1.0000999 1.0000999 0 1 0 2 0v-4a1.0000999 1.0000999 0 0 0 -1.0156-1.01367z"
                                             font-variant-ligatures="normal"
                                             font-variant-position="normal"
                                             font-variant-caps="normal"
                                             font-variant-numeric="normal"
                                             font-variant-alternates="normal"
                                             font-feature-settings="normal" text-indent="0"
                                             text-align="start" text-decoration-line="none"
                                             text-decoration-style="solid"
                                             text-decoration-color="rgb(0,0,0)"
                                             text-transform="none" text-orientation="mixed"
                                             white-space="normal" shape-padding="0"
                                             isolation="auto" mix-blend-mode="normal"
                                             solid-color="rgb(0,0,0)" solid-opacity="1"
                                             vector-effect="none" paint-order="normal"
                                             fill="#000000"
                                             class=""></path><path id="path1692"
                                                                   d="m23.5 4a1.0000999 1.0000999 0 1 0 0 2h4v4a1.0000999 1.0000999 0 1 0 2 0v-5a1.0000999 1.0000999 0 0 0 -1-1z"
                                                                   font-variant-ligatures="normal"
                                                                   font-variant-position="normal"
                                                                   font-variant-caps="normal"
                                                                   font-variant-numeric="normal"
                                                                   font-variant-alternates="normal"
                                                                   font-feature-settings="normal"
                                                                   text-indent="0"
                                                                   text-align="start"
                                                                   text-decoration-line="none"
                                                                   text-decoration-style="solid"
                                                                   text-decoration-color="rgb(0,0,0)"
                                                                   text-transform="none"
                                                                   text-orientation="mixed"
                                                                   white-space="normal"
                                                                   shape-padding="0"
                                                                   isolation="auto"
                                                                   mix-blend-mode="normal"
                                                                   solid-color="rgb(0,0,0)"
                                                                   solid-opacity="1"
                                                                   vector-effect="none"
                                                                   paint-order="normal"
                                                                   fill="#000000"

                                                                   class=""></path><path
        id="path1694" d="m15.5 4a1.0000999 1.0000999 0 1 0 0 2h4a1.0000999 1.0000999 0 1 0 0-2z"
        font-variant-ligatures="normal" font-variant-position="normal" font-variant-caps="normal"
        font-variant-numeric="normal" font-variant-alternates="normal" font-feature-settings="normal" text-indent="0"
        text-align="start" text-decoration-line="none" text-decoration-style="solid" text-decoration-color="rgb(0,0,0)"
        text-transform="none" text-orientation="mixed" white-space="normal" shape-padding="0" isolation="auto"
        mix-blend-mode="normal" solid-color="rgb(0,0,0)" solid-opacity="1" vector-effect="none" paint-order="normal"
        fill="#000000" class=""></path><path id="path1696"
                                             d="m8.5 13c-1.6447 0-3 1.3553-3 3-1.6447 0-3 1.3553-3 3v6c0 1.64471 1.3553 3 3 3h12c1.6447 0 3-1.35529 3-3v-6c0-1.6447-1.3553-3-3-3 0-1.6447-1.3553-3-3-3zm0 2h6c.5713 0 1 .42871 1 1v1a1.0001 1.0001 0 0 0 1 1h1c.5713 0 1 .42871 1 1v6c0 .5713-.4287 1-1 1h-12c-.5713 0-1-.4287-1-1v-6c0-.57129.4287-1 1-1h1a1.0001 1.0001 0 0 0 1-1v-1c0-.57129.4287-1 1-1z"
                                             font-variant-ligatures="normal"
                                             font-variant-position="normal"
                                             font-variant-caps="normal"
                                             font-variant-numeric="normal"
                                             font-variant-alternates="normal"
                                             font-feature-settings="normal" text-indent="0"
                                             text-align="start" text-decoration-line="none"
                                             text-decoration-style="solid"
                                             text-decoration-color="rgb(0,0,0)"
                                             text-transform="none" text-orientation="mixed"
                                             white-space="normal" shape-padding="0"
                                             isolation="auto" mix-blend-mode="normal"
                                             solid-color="rgb(0,0,0)" solid-opacity="1"
                                             vector-effect="none" paint-order="normal"
                                             fill="#000000"
                                             class=""></path><path id="path1698"
                                                                   d="m11.5 18c-1.645.00001-3 1.355-3 3 0 1.64501 1.355 3 3 3s3-1.35499 3-3c0-1.645-1.355-2.99999-3-3zm0 2c.5642.00001 1 .43588 1 1 0 .56413-.4358 1-1 1-.5641 0-1-.43587-1-1 0-.56412.4359-.99999 1-1z"
                                                                   font-variant-ligatures="normal"
                                                                   font-variant-position="normal"
                                                                   font-variant-caps="normal"
                                                                   font-variant-numeric="normal"
                                                                   font-variant-alternates="normal"
                                                                   font-feature-settings="normal"
                                                                   text-indent="0"
                                                                   text-align="start"
                                                                   text-decoration-line="none"
                                                                   text-decoration-style="solid"
                                                                   text-decoration-color="rgb(0,0,0)"
                                                                   text-transform="none"
                                                                   text-orientation="mixed"
                                                                   white-space="normal"
                                                                   shape-padding="0"
                                                                   isolation="auto"
                                                                   mix-blend-mode="normal"
                                                                   solid-color="rgb(0,0,0)"
                                                                   solid-opacity="1"
                                                                   vector-effect="none"
                                                                   paint-order="normal"
                                                                   fill="#000000"

                                                                   class=""></path></g></g></svg>