<svg xmlns="http://www.w3.org/2000/svg" version="1.1" width="512" height="512" x="0" y="0" viewBox="0 0 48 48"
     style="enable-background:new 0 0 512 512" xml:space="preserve" class=""><g><g xmlns="http://www.w3.org/2000/svg" id="Celcius,-celsius,-degree,-forecast,-temperature,-thermometer,-weather-icon" fill="none" fill-rule="evenodd"><path id="Shape" d="m21 5c2.6887547 0 5 2.1727085 5 5.0067277v21.0952723c.1781056.1973454 2 1.9586819 2 4.898 0 3.8659932-3.1340068 7-7 7s-7-3.1340068-7-7c0-1.723825.7296206-3.7030334 2-4.898v-21.102c-.0709262-2.77210891 2.3112453-5 5-5zm0 12c-.5128358 0-.9999111.4210933-.9999111 1v15.1706743c-1.1652388.4118113-2.0000889 1.5230736-2.0000889 2.8293257 0 1.6568542 1.3431458 3 3 3s3-1.3431458 3-3c0-1.2405881-.8313283-2.4429992-1.9990993-2.8289758v-15.1710242c0-.5729651-.4880649-1-1.0009007-1zm-8 12c.5522847 0 1 .4477153 1 1 0 .5128358-.4198838 1-1 1h-5c-.55228475 0-1-.4477153-1-1 0-.5128358.41173516-1 1-1zm20-13c2.1421954 0 3.9951047 1.7359541 3.9951047 3.9932723.0048953.6397691-.44282 1.0486009-.9951047 1.0486009-.5128358 0-1-.3945395-1.0054857-1.0418732.0054857-1.1025373-.8899448-2-1.9945143-2-1.0543618 0-2 .8659312-2 1.9932723v6.0067277c0 1.1045695.8954305 2 2 2 1.0543618 0 2-.8585296 2-2 0-.5522847.4477153-1 1-1s1 .4477153 1 1c0 2.209139-1.790861 4-4 4-2.1421954 0-4-1.7371599-4-3.9932723v-6.0067277c0-2.209139 1.790861-4 4-4zm-20 10c.5522847 0 1 .4477153 1 1 0 .5128358-.3997162 1-1 1h-1c-.5522847 0-1-.4477153-1-1 0-.5128358.4004345-1 1-1zm0-4c.5522847 0 1 .4477153 1 1 0 .5128358-.4299677 1-1 1h-3c-.55228475 0-1-.4477153-1-1 0-.5128358.39064908-1 1-1zm28-6c1.1045695 0 2 .8954305 2 2s-.8954305 2-2 2-2-.8954305-2-2 .8954305-2 2-2zm-28 2c.5522847 0 1 .4477153 1 1 0 .5128358-.4134368.9932723-1 1h-4c-.55228475 0-1-.4477153-1-1 0-.5128358.41838425-1 1-1zm0-4c.5522847 0 1 .4477153 1 1 0 .5128358-.3946329 1-1 1h-2c-.5522847 0-1-.4477153-1-1 0-.5128358.405233-1 1-1zm0-4c.5522847 0 1 .4477153 1 1 0 .5128358-.4222808 1-1 1h-6c-.55228475 0-1-.4477153-1-1 0-.5128358.41306222-.9932723 1-1z" fill="#000000" fill-rule="nonzero" ></path></g></g></svg>