<svg id="Warstwa_1" data-name="Warstwa 1" xmlns="http://www.w3.org/2000/svg" viewBox="0 0 451.73 512">
    <title>temp_high</title>
    <path id="_ścieżka_złożona_" data-name="&lt;ścieżka złożona&gt;"
          d="M286.12,354.32v-294A60.24,60.24,0,0,0,225.88,0c-34.47-1.37-62.09,32.75-60.22,60.32,0,5.76,0,294,0,294-60.78,53.73-23,156.51,58.95,157.67C308.16,513.23,347.71,408.91,286.12,354.32ZM225.88,466.83c-50.93-1-62.19-70.32-15-87.76V180.73h30.11V379.07C288.11,396.53,276.79,465.87,225.88,466.83Z"
          transform="translate(-30.14 0)"/>
    <path id="_ścieżka_" data-name="&lt;ścieżka&gt;"
          d="M225.88,406.59a15.07,15.07,0,0,0-15,15.06c.75,20,29.36,20,30.11,0A15.08,15.08,0,0,0,225.88,406.59Z"
          transform="translate(-30.14 0)"/>
    <path id="_ścieżka_2" data-name="&lt;ścieżka&gt;" d="M30.14,45.21h90.34V75.33H30.14Z"
          transform="translate(-30.14 0)"/>
    <path id="_ścieżka_3" data-name="&lt;ścieżka&gt;" d="M60.25,105.44h60.23v30.12H60.25Z"
          transform="translate(-30.14 0)"/>
    <path id="_ścieżka_4" data-name="&lt;ścieżka&gt;" d="M30.14,165.67h90.34v30.12H30.14Z"
          transform="translate(-30.14 0)"/>
    <path id="_ścieżka_5" data-name="&lt;ścieżka&gt;" d="M60.25,225.9h60.23V256H60.25Z"
          transform="translate(-30.14 0)"/>
    <path id="_ścieżka_6" data-name="&lt;ścieżka&gt;" d="M30.14,286.13h90.34v30.12H30.14Z"
          transform="translate(-30.14 0)"/>
    <path id="_ścieżka_7" data-name="&lt;ścieżka&gt;"
          d="M481.86,67.05,412.6,15.1l-69.27,52L361.4,91.14,397.54,64V320h30.12V64l36.13,27.11Z"
          transform="translate(-30.14 0)"/>
</svg>