<svg xmlns="http://www.w3.org/2000/svg" version="1.1" width="512" height="512" x="0" y="0" viewBox="0 0 510.042 510.042"
     style="enable-background:new 0 0 512 512" xml:space="preserve" class=""><g><g xmlns="http://www.w3.org/2000/svg" id="XMLID_2181_"><g><path id="XMLID_79_" d="m285.021 352.964v-292.924c0-33.137-26.863-60-60-60-34.345-1.366-61.859 32.629-59.999 60.088-.001 5.741-.001 292.835-.001 292.835-60.556 53.53-22.957 155.915 58.721 157.067 83.236 1.235 122.641-102.686 61.279-157.066zm-60 112.076c-50.743-.968-61.959-70.049-15-87.42v-197.58h30v197.58c46.989 17.392 35.706 86.465-15 87.42z" fill="#000000" ></path><path
        id="XMLID_78_"
        d="m225.021 405.04c-8.271 0-15 6.729-15 15 .754 19.872 29.249 19.867 30 0 0-8.272-6.729-15-15-15z"
        fill="#000000"></path><path id="XMLID_77_" d="m30.021 45.04h90v30h-90z" fill="#000000"></path><path
        id="XMLID_76_" d="m60.021 105.04h60v30h-60z" fill="#000000"></path><path id="XMLID_75_"
                                                                                 d="m30.021 165.04h90v30h-90z"
                                                                                 fill="#000000"></path><path
        id="XMLID_74_" d="m60.021 225.04h60v30h-60z" fill="#000000"></path><path id="XMLID_73_"
                                                                                 d="m30.021 285.04h90v30h-90z"
                                                                                 fill="#000000"></path><path
        id="XMLID_72_" d="m462.021 243.04-36 27v-255h-30v255l-36-27-18 24 69 51.75 69-51.75z" fill="#000000"></path></g></g></g></svg>