<svg xmlns="http://www.w3.org/2000/svg" version="1.1" width="512" height="512" x="0" y="0" viewBox="0 0 512 512"
     style="enable-background:new 0 0 512 512" xml:space="preserve" class=""><g>
<g xmlns="http://www.w3.org/2000/svg">
	<path style=""
          d="M460.629,282.161l-9.861-1.782l11.488-8.575c3.419-2.553,4.123-7.394,1.569-10.814   c-2.553-3.42-7.393-4.122-10.813-1.57l-12.555,9.372l0.579-11.338c0.217-4.262-3.061-7.893-7.321-8.111   c-4.275-0.221-7.892,3.061-8.111,7.322l-1.233,24.135l-62.928,46.974c-3.419,2.553-4.123,7.394-1.569,10.814   c1.517,2.033,3.842,3.105,6.198,3.105c1.608,0,3.229-0.5,4.615-1.535l63.146-47.137l24.049,4.346   c0.465,0.084,0.927,0.125,1.384,0.125c3.665,0,6.92-2.619,7.595-6.353C467.617,286.939,464.828,282.921,460.629,282.161z"
          fill="#6d4d42" class=""></path>
    <path style=""
          d="M150.556,327.775l-62.928-46.974l-1.233-24.135c-0.218-4.262-3.869-7.545-8.111-7.321   c-4.262,0.217-7.539,3.849-7.322,8.111l0.579,11.338l-12.555-9.372c-3.419-2.553-8.262-1.849-10.813,1.57   c-2.554,3.419-1.85,8.261,1.569,10.814l11.488,8.575l-9.861,1.782c-4.199,0.759-6.988,4.778-6.23,8.977   c0.675,3.734,3.928,6.353,7.594,6.353c0.455,0,0.919-0.041,1.384-0.125l24.049-4.346l63.146,47.137   c1.388,1.035,3.008,1.535,4.615,1.535c2.355,0,4.681-1.073,6.198-3.105C154.678,335.168,153.975,330.328,150.556,327.775z"
          fill="#6d4d42" class=""></path>
</g>
<g xmlns="http://www.w3.org/2000/svg">
	<path style=""
          d="M402.784,296.914l-41.342,30.861c-3.419,2.553-4.123,7.394-1.569,10.814   c1.517,2.033,3.842,3.105,6.198,3.105c1.608,0,3.229-0.5,4.615-1.535l38.934-29.062   C407.56,306.246,405.277,301.515,402.784,296.914z"
          fill="#61443b"></path>
    <path style=""
          d="M150.556,327.775l-41.342-30.861c-2.492,4.602-4.776,9.332-6.835,14.181l38.935,29.063   c1.388,1.035,3.008,1.535,4.615,1.535c2.355,0,4.681-1.073,6.198-3.105C154.678,335.168,153.975,330.328,150.556,327.775z"
          fill="#61443b"></path>
</g>
<circle xmlns="http://www.w3.org/2000/svg" style="" cx="255.999" cy="376.098" r="135.901" fill="#eeeeec"
        class=""></circle>
<path xmlns="http://www.w3.org/2000/svg" style=""
      d="M171.605,376.096c0-66.251,47.409-121.419,110.149-133.456c-8.34-1.6-16.947-2.448-25.755-2.448  c-75.058,0-135.904,60.847-135.904,135.904S180.941,512,255.999,512c8.807,0,17.414-0.848,25.755-2.448  C219.014,497.516,171.605,442.347,171.605,376.096z"
      fill="#d4d3d3"></path>
<path xmlns="http://www.w3.org/2000/svg" style=""
      d="M131.77,278.56l35.872-35.664l39.123,39.352l-35.872,35.664c-3.445,3.425-9.014,3.409-12.439-0.036  l-26.721-26.876C128.309,287.554,128.325,281.985,131.77,278.56z"
      fill="#117d66"></path>
<path xmlns="http://www.w3.org/2000/svg" style=""
      d="M336.305,197.001c30.485,26.398,36.524,109.479-80.306,109.479s-110.79-83.081-80.306-109.479  H336.305z"
      fill="#44c2a7"></path>
<path xmlns="http://www.w3.org/2000/svg" style=""
      d="M206.599,197.001h-30.905c-30.484,26.398-36.524,109.479,80.306,109.479  c5.413,0,10.558-0.18,15.453-0.523C170.69,298.903,177.527,222.176,206.599,197.001z"
      fill="#1f967e"></path>
<circle xmlns="http://www.w3.org/2000/svg" style="" cx="255.999" cy="171.165" r="84.341" fill="#eeeeec"
        class=""></circle>
<path xmlns="http://www.w3.org/2000/svg" style=""
      d="M192.262,171.169c0-43.09,32.322-78.608,74.039-83.693c-3.379-0.412-6.812-0.649-10.302-0.649  c-46.581,0-84.341,37.761-84.341,84.341s37.761,84.341,84.341,84.341c3.49,0,6.923-0.237,10.302-0.649  C224.584,249.777,192.262,214.259,192.262,171.169z"
      fill="#d4d3d3"></path>
<g xmlns="http://www.w3.org/2000/svg">
	<circle style="" cx="255.999" cy="344.894" r="15.597" fill="#e95552"></circle>
    <circle style="" cx="255.999" cy="398.412" r="15.597" fill="#e95552"></circle>
    <circle style="" cx="255.999" cy="451.93" r="15.597" fill="#e95552"></circle>
    <circle style="" cx="255.999" cy="171.165" r="17.987" fill="#e95552"></circle>
</g>
<g xmlns="http://www.w3.org/2000/svg">
	<path style=""
          d="M255.999,227.122c-12.614,0-24.025-5.568-30.527-14.895c-2.44-3.501-1.581-8.317,1.919-10.756   c3.502-2.442,8.317-1.58,10.756,1.919c3.56,5.108,10.401,8.28,17.851,8.28c7.448,0,14.289-3.172,17.85-8.278   c2.44-3.498,7.257-4.359,10.756-1.917c3.5,2.441,4.359,7.257,1.917,10.757C280.02,221.555,268.61,227.122,255.999,227.122z"
          fill="#424342"></path>
    <circle style="" cx="217.553" cy="151.931" r="10.593" fill="#424342"></circle>
    <circle style="" cx="294.445" cy="151.931" r="10.593" fill="#424342"></circle>
</g>
<polygon xmlns="http://www.w3.org/2000/svg" style=""
         points="253.858,32.821 190.622,51.758 195.828,86.832 255.999,103.517 311.889,86.832   317.094,51.758 "
         fill="#e95552"></polygon>
<polygon xmlns="http://www.w3.org/2000/svg" style=""
         points="270.882,99.074 226.734,86.832 220.208,42.898 190.622,51.758 195.804,86.666   195.828,86.832 235.943,97.955 255.999,103.517 "
         fill="#d34d49"></polygon>
<g xmlns="http://www.w3.org/2000/svg">
	<rect x="150.447" y="86.824" style="" width="211.105" height="33.374" fill="#424342"></rect>
    <polygon style="" points="324.787,0 317.094,51.758 190.622,51.758 182.929,0  " fill="#424342"></polygon>
</g>
<polygon xmlns="http://www.w3.org/2000/svg" style="" points="221.523,51.758 213.835,0 182.929,0 190.622,51.758 "
         fill="#3a3b3a"></polygon>
<g xmlns="http://www.w3.org/2000/svg">
</g>
<g xmlns="http://www.w3.org/2000/svg">
</g>
<g xmlns="http://www.w3.org/2000/svg">
</g>
<g xmlns="http://www.w3.org/2000/svg">
</g>
<g xmlns="http://www.w3.org/2000/svg">
</g>
<g xmlns="http://www.w3.org/2000/svg">
</g>
<g xmlns="http://www.w3.org/2000/svg">
</g>
<g xmlns="http://www.w3.org/2000/svg">
</g>
<g xmlns="http://www.w3.org/2000/svg">
</g>
<g xmlns="http://www.w3.org/2000/svg">
</g>
<g xmlns="http://www.w3.org/2000/svg">
</g>
<g xmlns="http://www.w3.org/2000/svg">
</g>
<g xmlns="http://www.w3.org/2000/svg">
</g>
<g xmlns="http://www.w3.org/2000/svg">
</g>
<g xmlns="http://www.w3.org/2000/svg">
</g>
</g></svg>