<svg xmlns="http://www.w3.org/2000/svg" version="1.1" width="512" height="512" x="0" y="0" viewBox="0 0 512 512"
     style="enable-background:new 0 0 512 512" xml:space="preserve" class=""><g><g xmlns="http://www.w3.org/2000/svg"><path d="m34.298 127.999c-2.022 3.501-3.137 7.525-3.137 11.707v232.589c0 8.364 4.462 16.093 11.706 20.275l201.428 116.294c3.617 2.088 7.653 3.134 11.69 3.136l27.047-283.038z" fill="#b9e4ef" class=""></path><path
        d="m255.985 201.97v310.03c4.047.003 8.095-1.043 11.721-3.136l201.428-116.294c7.243-4.182 11.706-11.911 11.706-20.275v-232.589c0-4.182-1.115-8.205-3.137-11.706z"
        fill="#93d8e4" class=""></path><path
        d="m477.703 128c-2.021-3.501-4.947-6.478-8.569-8.569l-201.428-116.294c-7.244-4.182-16.168-4.182-23.411 0l-201.428 116.294c-3.621 2.091-6.547 5.068-8.568 8.568l221.704 128.001z"
        fill="#daf1f4" class=""></path><path
        d="m455.085 266.985c0-7.601-22.569-39.583-56.677-61.762l-4.956-2.507c-14.873-7.524-32.513-7.166-47.069.955l-16.587 9.254c-10.833 6.044-15.57 19.137-11.11 30.713l6.254 16.235c8.986 23.327 23.941 43.884 43.368 59.616 6.312 5.111 14.923 6.258 22.324 3.04 38.411-17.817 64.453-47.38 64.453-55.544z"
        fill="#daf1f4" class=""></path><path
        d="m331.108 183.181c-46.948 0-130.498 40.153-178.385 63.368-14.328 6.946-31.209 6.062-44.731-2.345-13.19-8.201-28.765-17.883-48.375-30.074-1.178-.732-2.701.115-2.701 1.501v104.156c0 1.386 1.52 2.235 2.697 1.503 8.122-5.05 32.899-20.455 50.974-31.696 7.483-4.653 16.017-7.015 24.594-6.998 5.852.005 11.725.506 17.298 1.516 41.95 7.598 102.578 17.567 148.276 21.192 3.934.31 7.603-2.172 8.636-5.98 3.09-11.386 11.232-20.692 21.87-25.364-2.353-4.565-4.465-9.267-6.322-14.087l-6.254-16.235c-4.459-11.576.277-24.669 11.11-30.713l16.587-9.254c14.556-8.121 32.195-8.479 47.069-.955l4.956 2.507c-19.381-12.604-42.489-22.042-67.299-22.042z"
        fill="#93d8e4" class=""></path><path
        d="m393.451 202.715 4.956 2.507c-8.908-5.793-18.603-10.916-28.888-14.763l-20.544 11.861c14.024-6.786 30.476-6.688 44.476.395z"
        fill="#7ad0df" class=""></path><path
        d="m300.755 305.305c3.934.31 7.603-2.172 8.636-5.98 3.09-11.386 11.232-20.692 21.87-25.364-2.353-4.565-4.465-9.267-6.322-14.087l-6.254-16.235c-3.861-10.022-.829-21.181 7.085-27.919l-69.768 40.281-.017.01v53.306c15.672 2.021 30.908-5.112 44.77-4.012z"
        fill="#7ad0df" class=""></path><path
        d="m368.307 319.489c-5.225-4.231-10.126-8.812-14.675-13.701-8.869-9.533-16.398-20.241-22.37-31.828-10.638 4.672-18.78 13.979-21.87 25.364-1.034 3.81-4.706 6.292-8.641 5.98-45.697-3.624-106.323-13.593-148.271-21.191-5.573-1.009-11.446-1.511-17.298-1.516 5.852.012 11.725 1.131 17.298 3.386 52.207 21.124 133.345 50.451 178.629 50.451 21.571 0 41.856-5.71 59.524-13.905-7.402 3.218-16.014 2.071-22.326-3.04z"
        fill="#b9e4ef" class=""></path><path
        d="m255.985 300.498c-35.992-4.648-74.281-11.092-103.506-16.385-5.573-1.01-11.446-1.511-17.298-1.516 5.852.012 11.725 1.131 17.298 3.386 29.224 11.825 67.514 26.22 103.506 36.602z"
        fill="#daf1f4" class=""></path><path
        d="m107.991 244.204c-13.19-8.201-28.765-17.883-48.375-30.073-1.178-.732-2.701.115-2.701 1.501v104.156c0 1.387 1.52 2.235 2.697 1.503 8.122-5.05 32.899-20.456 50.974-31.696 7.483-4.653 16.017-7.015 24.594-6.998 5.852.005 11.725.506 17.298 1.516 29.224 5.293 67.514 11.737 103.506 16.385v-44.489l.017-.01-55.481-32.032c-17.707 8.021-34.192 15.985-47.798 22.581-14.327 6.946-31.208 6.063-44.731-2.344z"
        fill="#7ad0df" class=""></path><path
        d="m152.479 285.983c-5.43-2.197-11.145-3.316-16.848-3.383.655 9.797 3.252 19.384 7.658 28.196 2.081 4.163 6.771 6.325 11.289 5.204l46.271-11.48c-17.415-6.278-33.99-12.719-48.37-18.537z"
        fill="#70c6da"></path><path
        d="m152.723 246.549c13.73-6.656 30.392-14.705 48.282-22.8l-46.428-11.518c-4.517-1.121-9.207 1.042-11.289 5.204-5.145 10.29-7.823 21.636-7.823 33.14v.527c5.906-.381 11.77-1.893 17.258-4.553z"
        fill="#70c6da"></path><path
        d="m230.1 260.901c2.812 21.58 19.941 38.482 41.556 41.005l29.099 3.398c3.934.31 7.603-2.172 8.637-5.98 3.09-11.386 11.232-20.692 21.87-25.364l-40.46-33.05c-12.894-10.532-30.599-12.96-45.851-6.286-10.244 4.481-16.296 15.19-14.851 26.277z"
        fill="#ffffff"></path><path
        d="m255.985 256.009v41.237c4.812 2.4 10.092 4.01 15.671 4.661l29.099 3.398c3.934.31 7.603-2.172 8.637-5.98 3.09-11.386 11.232-20.692 21.87-25.364l-40.46-33.05c-1.232-1.007-2.508-1.939-3.821-2.796l-30.979 17.886z"
        fill="#daf1f4" class=""></path><path
        d="m255.985 256.009.017-.01-21.721-12.541c-3.406 4.98-5.001 11.15-4.181 17.443 2.086 16.01 12.053 29.445 25.885 36.345z"
        fill="#ecf9f9" class=""></path><path
        d="m331.111 161.79v21.387c-35.242 0-91.099 22.623-137.024 43.731 43.194-49.498 89.497-68.234 132.591-69.425 2.426-.067 4.433 1.879 4.433 4.307z"
        fill="#7ad0df" class=""></path><path
        d="m292.845 331.812-22.198 3.032c-6.852.936-12.203 6.388-13.011 13.256l-1.599 13.595c-.465 3.955 3.69 6.815 7.218 4.967l58.426-30.602c-8.753-.652-18.482-2.137-28.836-4.248z"
        fill="#7ad0df" class=""></path><path
        d="m99.469 124.221c-2.67 0-5.267-1.385-6.698-3.864-2.134-3.695-.868-8.421 2.828-10.554l114.781-66.269c3.696-2.132 8.421-.868 10.554 2.828 2.134 3.695.868 8.421-2.828 10.554l-114.781 66.269c-1.216.702-2.545 1.036-3.856 1.036z"
        fill="#ecf9f9" class=""></path><path
        d="m214.236 239.619c-1.311 0-2.639-.334-3.856-1.036l-124.212-71.714c-3.696-2.134-4.962-6.859-2.828-10.554 2.133-3.696 6.859-4.961 10.554-2.828l124.213 71.713c3.696 2.134 4.962 6.859 2.828 10.554-1.431 2.48-4.028 3.865-6.699 3.865z"
        fill="#ffffff"></path><path
        d="m255.761 455.368c-4.228-.128-7.487-3.817-7.487-8.047v-191.321c0-2.761 1.473-5.311 3.863-6.691l159.279-91.959c3.695-2.134 8.421-.867 10.554 2.828 2.134 3.695.867 8.421-2.828 10.554l-155.415 89.728-.001 187.185c0 4.347-3.589 7.855-7.965 7.723z"
        fill="#ffffff"></path><path
        d="m386.049 304.937c-1.859 0-3.723-.667-5.204-2.018-3.153-2.875-3.378-7.762-.502-10.914l7.397-8.111c14.277-15.656 34.618-24.636 55.807-24.636h11.538c4.268 0 7.726 3.459 7.726 7.726s-3.459 7.726-7.726 7.726h-11.538c-16.853 0-33.033 7.142-44.389 19.596l-7.398 8.111c-1.525 1.672-3.615 2.52-5.711 2.52z"
        fill="#ecf9f9" class=""></path></g></g></svg>