<svg xmlns="http://www.w3.org/2000/svg" version="1.1" width="512" height="512" x="0" y="0" viewBox="0 0 32 32"
     style="enable-background:new 0 0 512 512" xml:space="preserve" class=""><g><g xmlns="http://www.w3.org/2000/svg" id="Snowflake"><path d="M28.415,17.86a1,1,0,0,1-.55,1.3027l-2.7786,1.13,2.5716,1.5452a1,1,0,1,1-1.03,1.7138l-2.5714-1.545.3068,2.985a1,1,0,0,1-1.9893.2041l-.46-4.4765L17,17.7673V23.5l3.6,2.7a1,1,0,1,1-1.2,1.6L17,26v3a1,1,0,0,1-2,0V26l-2.4,1.8a1,1,0,0,1-1.2-1.6L15,23.5V17.7673L10.0861,20.72l-.46,4.4765a1,1,0,0,1-.9937.8979.9171.9171,0,0,1-.103-.0053.9993.9993,0,0,1-.8926-1.0967l.3068-2.985-2.5714,1.545a1,1,0,1,1-1.03-1.7138l2.5716-1.5452-2.7786-1.13a1,1,0,0,1,.7529-1.8526l4.1686,1.6952L14.0587,16,9.0563,12.9943,4.8877,14.69a1,1,0,0,1-.7529-1.8526l2.7786-1.13L4.3418,10.1616a1,1,0,1,1,1.03-1.7138l2.5714,1.545-.3068-2.985A1,1,0,1,1,9.626,6.8037l.46,4.4765L15,14.2327V8.5L11.4,5.8a1,1,0,1,1,1.2-1.6L15,6V3a1,1,0,0,1,2,0V6l2.4-1.8a1,1,0,0,1,1.2,1.6L17,8.5v5.7328L21.9139,11.28l.46-4.4765a1,1,0,0,1,1.9893.2041l-.3068,2.985,2.5714-1.545a1,1,0,1,1,1.03,1.7138l-2.5716,1.5452,2.7786,1.13a1,1,0,0,1-.7529,1.8526l-4.1686-1.6952L17.9413,16l5.0024,3.0057,4.1686-1.6952A.9987.9987,0,0,1,28.415,17.86Z" style="fill:#4294ff" fill="#4294ff"></path></g></g></svg>